# xmcd
#
# Track frame offsets:
#	150
#	9509
#	22295
#	33464
#	43049
#	51841
#	62063
#	70844
#	77604
#	89353
#	103065
#	111171
#	123821
#	137196
#	152181
#	164327
#	175870
#	188394
#
# Disc length: 2617 seconds
#
# Revision: 0
# Processed by: cddbd v1.5PL3 Copyright (c) Steve Scherf et al.
# Submitted via: EasyCDDAExtractor 5.0.0.0
#
DISCID=ee0a3712
DTITLE=Willie Nelson - Country Cowboys and Cowgirls
DYEAR=1900
DGENRE=Country
TTITLE0=Building Heartaches - Willie Nelson
TTITLE1=I Just Don't Understand - Willie Nelson
TTITLE2=I'm Going To Lose A Lot Of Teardrops - Willie Nelson
TTITLE3=Let's Pretend - Willie Nelson
TTITLE4=Right From Wrong - Willie Nelson
TTITLE5=Broken Promises - Willie Nelson
TTITLE6=Why Are You Picking On Me? - Willie Nelson
TTITLE7=Both Ends Of The Candle - Willie Nelson
TTITLE8=The Last Letter - Willie Nelson
TTITLE9=Home Is Where You're Happy - Willie Nelson
TTITLE10=You Wouldn't Cross The Street To Say Goodbye - Willie Nelson
TTITLE11=Any Old Arms Won't Do - Willie Nelson
TTITLE12=Everything But You - Willie Nelson
TTITLE13=Face Of A Fighter - Willie Nelson
TTITLE14=I Can't Find The Time - Willie Nelson
TTITLE15=I'll Stay Around - Willie Nelson
TTITLE16=She's Not For You - Willie Nelson
TTITLE17=Things To Remember - Willie Nelson
EXTD=
EXTT0=
EXTT1=
EXTT2=
EXTT3=
EXTT4=
EXTT5=
EXTT6=
EXTT7=
EXTT8=
EXTT9=
EXTT10=
EXTT11=
EXTT12=
EXTT13=
EXTT14=
EXTT15=
EXTT16=
EXTT17=
PLAYORDER=
